<?xml version="1.0" encoding="utf-8"?>
<!-- Generator: Adobe Illustrator 19.2.1, SVG Export Plug-In . SVG Version: 6.00 Build 0)  -->
<svg version="1.1" id="Layer_1" xmlns="http://www.w3.org/2000/svg" xmlns:xlink="http://www.w3.org/1999/xlink" x="0px" y="0px"
	 viewBox="0 0 453.5 255.1" style="enable-background:new 0 0 453.5 255.1;" xml:space="preserve">
<style type="text/css">
	.st0{display:none;fill:#B92226;}
	.st1{fill:#FBC160;}
</style>
<rect y="0" class="st0" width="453.5" height="255.1"/>
<g>
	<rect x="212.1" y="99.3" class="st1" width="29.4" height="105.4"/>
	<g>
		<g>
			<path class="st1" d="M289.8,118.9c-39.6-20.2-86.5-20.2-126.1,0c-4.8-9.4-9.6-18.8-14.4-28.2c48.6-24.8,106.2-24.8,154.8,0
				C299.4,100.1,294.6,109.5,289.8,118.9z"/>
			<path class="st1" d="M300.4,98.1c-4.8-2.4-9.6-4.6-14.6-6.5c-3.7,9.5-7.5,19.1-11.2,28.6c4,1.6,7.9,3.3,11.8,5.3
				C291.1,116.3,295.8,107.2,300.4,98.1z"/>
			<path class="st1" d="M153.1,98.1c4.8-2.4,9.6-4.6,14.6-6.5c3.7,9.5,7.5,19.1,11.2,28.6c-4,1.6-7.9,3.3-11.8,5.3
				C162.4,116.3,157.8,107.2,153.1,98.1z"/>
		</g>
	</g>
</g>
</svg>
