<?xml version="1.0" encoding="utf-8"?>
<!-- Generator: Adobe Illustrator 19.2.1, SVG Export Plug-In . SVG Version: 6.00 Build 0)  -->
<svg version="1.1" id="Layer_1" xmlns="http://www.w3.org/2000/svg" xmlns:xlink="http://www.w3.org/1999/xlink" x="0px" y="0px"
	 viewBox="0 0 453.5 255.1" style="enable-background:new 0 0 453.5 255.1;" xml:space="preserve">
<style type="text/css">
	.st0{fill:#B92226;}
	.st1{fill:#FBC160;}
</style>
<rect class="st0" width="453.5" height="255.1"/>
<rect x="205.9" y="79" class="st1" width="41.7" height="149.5"/>
<g>
	<g>
		<path class="st1" d="M316.2,106.9c-56.2-28.6-122.7-28.6-178.9,0c-6.8-13.3-13.6-26.7-20.4-40c69-35.2,150.7-35.2,219.7,0
			C329.8,80.2,323,93.5,316.2,106.9z"/>
		<path class="st1" d="M331.3,77.3c-6.8-3.4-13.7-6.5-20.7-9.3c-5.3,13.5-10.6,27.1-15.9,40.6c5.7,2.2,11.3,4.7,16.7,7.5
			C318.1,103.2,324.7,90.2,331.3,77.3z"/>
		<path class="st1" d="M122.3,77.3c6.8-3.4,13.7-6.5,20.7-9.3c5.3,13.5,10.6,27.1,15.9,40.6c-5.7,2.2-11.3,4.7-16.7,7.5
			C135.5,103.2,128.9,90.2,122.3,77.3z"/>
	</g>
</g>
</svg>
